<svg xmlns="http://www.w3.org/2000/svg" xmlns:xlink="http://www.w3.org/1999/xlink" width="1024" height="1024" viewBox="0 0 1024 1024">
  <defs>
    <path id="basicinfofilled-a" d="M296,127.999 L296,176 C296,215.366857 327.594012,247.354537 366.809348,247.990354 L368,248 L656,248 C695.366857,248 727.354537,216.405988 727.990354,177.190652 L728,176 L728,127.999 L796,127.999 C840.18278,127.999 876,163.81722 876,208 L876,880 C876,924.18278 840.18278,960 796,960 L228,960 C183.81722,960 148,924.18278 148,880 L148,208 C148,163.81722 183.81722,127.999 228,127.999 L296,127.999 Z M544,716 L352,716 C334.326888,716 320,730.326888 320,748 C320,765.496381 334.041783,779.713128 351.470821,779.995713 L352,780 L544,780 C561.673112,780 576,765.673112 576,748 C576,730.326888 561.673112,716 544,716 Z M672,552 L352,552 C334.326888,552 320,566.326888 320,584 C320,601.496381 334.041783,615.713128 351.470821,615.995713 L352,616 L672,616 C689.673112,616 704,601.673112 704,584 C704,566.326888 689.673112,552 672,552 Z M672,388 L352,388 C334.326888,388 320,402.326888 320,420 C320,437.496381 334.041783,451.713128 351.470821,451.995713 L352,452 L672,452 C689.673112,452 704,437.673112 704,420 C704,402.326888 689.673112,388 672,388 Z M632,64 C654.09139,64 672,81.90861 672,104 L672,152 C672,174.09139 654.09139,192 632,192 L392,192 C369.90861,192 352,174.09139 352,152 L352,104 C352,81.90861 369.90861,64 392,64 L632,64 Z"/>
  </defs>
  <g fill="none" fill-rule="evenodd">
    <mask id="basicinfofilled-b" fill="#fff">
      <use xlink:href="#basicinfofilled-a"/>
    </mask>
    <use fill="#000" xlink:href="#basicinfofilled-a"/>
    <g mask="url(#basicinfofilled-b)">
      <rect width="1024" height="1024" fill="#666"/>
    </g>
  </g>
</svg>
