<svg xmlns="http://www.w3.org/2000/svg" xmlns:xlink="http://www.w3.org/1999/xlink" width="1024" height="1024" viewBox="0 0 1024 1024">
  <defs>
    <path id="checkcircleoutlined-a" d="M512,64 C759.423568,64 960,264.576432 960,512 C960,759.423568 759.423568,960 512,960 C264.576432,960 64,759.423568 64,512 C64,264.576432 264.576432,64 512,64 Z M512,140 C306.550073,140 140,306.550073 140,512 C140,717.449927 306.550073,884 512,884 C717.449927,884 884,717.449927 884,512 C884,306.550073 717.449927,140 512,140 Z M752.872104,351.13961 C767.709299,365.992424 767.709299,390.073593 752.872104,404.926407 L484.220929,673.86039 C469.383734,688.713203 445.327889,688.713203 430.490694,673.86039 L272.127896,515.330884 C257.290701,500.47807 257.290701,476.396901 272.127896,461.544087 C286.965091,446.691274 311.020936,446.691274 325.858131,461.544087 L457.355104,593.179487 L699.141869,351.13961 C713.979064,336.286797 738.034909,336.286797 752.872104,351.13961 Z"/>
  </defs>
  <use fill="#0091FF" fill-rule="evenodd" xlink:href="#checkcircleoutlined-a"/>
</svg>
